<?xml version="1.0" encoding="utf-8"?>
<!-- Generator: Adobe Illustrator 27.5.0, SVG Export Plug-In . SVG Version: 6.00 Build 0)  -->
<svg version="1.1" id="Layer_1" xmlns="http://www.w3.org/2000/svg" xmlns:xlink="http://www.w3.org/1999/xlink" x="0px" y="0px"
	 viewBox="0 0 277 65" style="enable-background:new 0 0 277 65;" xml:space="preserve">
<style type="text/css">
	.st0{fill:#273D88;}
	.st1{fill:#F27321;}
	.st2{fill:#F27422;}
	.st3{fill:#FFFFFF;}
</style>
<g>
	<g>
		<path class="st0" d="M95.4,13.6c1.4,0,2.8,0.3,4,0.8c1.3,0.5,2.4,1.3,3.3,2.2c1,1,1.7,2.1,2.2,3.3c0.5,1.3,0.8,2.6,0.8,4.1
			c0,1.4-0.3,2.8-0.8,4.1c-0.5,1.3-1.3,2.4-2.2,3.3c-1,0.9-2.1,1.7-3.3,2.2c-1.3,0.5-2.6,0.8-4,0.8h-8.3v16.4h-4.4V13.6H95.4z
			 M95.4,30c0.8,0,1.6-0.2,2.3-0.5c0.7-0.3,1.4-0.7,1.9-1.3c0.5-0.5,1-1.2,1.3-1.9c0.3-0.7,0.5-1.5,0.5-2.3c0-0.8-0.2-1.6-0.5-2.3
			c-0.3-0.7-0.7-1.4-1.3-1.9c-0.5-0.5-1.2-1-1.9-1.3c-0.7-0.3-1.5-0.5-2.3-0.5h-8.3V30H95.4z"/>
		<path class="st0" d="M110.1,50.9h-4.4V38.2c0-1.8,0.4-3.6,1.1-5.2c0.7-1.6,1.8-3,3.1-4.2c1.3-1.2,2.8-2.1,4.5-2.8
			c1.7-0.7,3.6-1,5.5-1v4.4c-1.4,0-2.6,0.2-3.8,0.7c-1.2,0.5-2.2,1.1-3.1,1.9c-0.9,0.8-1.6,1.8-2.1,2.9c-0.5,1.1-0.8,2.2-0.8,3.5
			V50.9z"/>
		<path class="st0" d="M134.4,24.8c1.8,0,3.6,0.3,5.2,1c1.6,0.7,3,1.6,4.2,2.8c1.2,1.2,2.2,2.6,2.9,4.2s1,3.4,1,5.2
			c0,1.8-0.3,3.6-1,5.2c-0.7,1.6-1.7,3-2.9,4.2c-1.2,1.2-2.6,2.1-4.2,2.8c-1.6,0.7-3.3,1-5.2,1c-1.8,0-3.6-0.3-5.2-1
			c-1.6-0.7-3-1.6-4.2-2.8c-1.2-1.2-2.2-2.6-2.9-4.2c-0.7-1.6-1-3.3-1-5.2c0-1.8,0.3-3.6,1-5.2c0.7-1.6,1.7-3,2.9-4.2
			s2.6-2.1,4.2-2.8C130.8,25.2,132.6,24.8,134.4,24.8z M134.4,29.2c-1.2,0-2.4,0.2-3.5,0.7c-1.1,0.5-2,1.1-2.9,1.9
			c-0.8,0.8-1.5,1.8-1.9,2.9c-0.5,1.1-0.7,2.2-0.7,3.5c0,1.2,0.2,2.4,0.7,3.5c0.5,1.1,1.1,2,1.9,2.8c0.8,0.8,1.8,1.4,2.9,1.9
			c1.1,0.5,2.2,0.7,3.5,0.7c1.2,0,2.4-0.2,3.5-0.7c1.1-0.5,2-1.1,2.9-1.9c0.8-0.8,1.5-1.7,1.9-2.8c0.5-1.1,0.7-2.2,0.7-3.5
			c0-1.2-0.2-2.4-0.7-3.5c-0.5-1.1-1.1-2-1.9-2.9c-0.8-0.8-1.8-1.5-2.9-1.9C136.8,29.5,135.6,29.2,134.4,29.2z"/>
		<path class="st0" d="M165.7,24.9c1.8,0,3.6,0.3,5.2,1c1.6,0.7,3,1.6,4.2,2.8c1.2,1.2,2.2,2.6,2.9,4.2c0.7,1.6,1,3.4,1,5.2
			c0,1.8-0.3,3.6-1,5.2c-0.7,1.6-1.7,3-2.9,4.2c-1.2,1.2-2.6,2.2-4.2,2.9c-1.6,0.7-3.3,1-5.2,1c-1.7,0-3.4-0.3-4.9-0.9
			c-1.5-0.6-2.9-1.4-4.1-2.5v14.7h-4.4V38.3c0-1.8,0.3-3.6,1-5.2c0.7-1.6,1.7-3,2.9-4.2c1.2-1.2,2.6-2.1,4.2-2.8
			C162.1,25.3,163.8,24.9,165.7,24.9z M165.7,29.3c-1.2,0-2.4,0.2-3.5,0.7c-1.1,0.5-2,1.1-2.9,1.9c-0.8,0.8-1.5,1.8-1.9,2.9
			c-0.5,1.1-0.7,2.2-0.7,3.5c0,1.2,0.2,2.4,0.7,3.5c0.5,1.1,1.1,2,1.9,2.8c0.8,0.8,1.8,1.4,2.9,1.9c1.1,0.5,2.2,0.7,3.5,0.7
			c1.2,0,2.4-0.2,3.5-0.7c1.1-0.5,2-1.1,2.9-1.9c0.8-0.8,1.5-1.7,1.9-2.8c0.5-1.1,0.7-2.2,0.7-3.5c0-1.2-0.2-2.4-0.7-3.5
			c-0.5-1.1-1.1-2-1.9-2.9c-0.8-0.8-1.8-1.5-2.9-1.9C168.1,29.6,166.9,29.3,165.7,29.3z"/>
		<path class="st0" d="M183.5,13.5h4.4v5.9h-4.4V13.5z M183.5,25.4h4.4v25.5h-4.4V25.4z"/>
		<path class="st0" d="M205.5,51.3c-1.8,0-3.6-0.3-5.2-1c-1.6-0.7-3-1.6-4.2-2.8c-1.2-1.2-2.2-2.6-2.9-4.2c-0.7-1.6-1-3.3-1-5.2
			c0-1.8,0.3-3.6,1-5.2c0.7-1.6,1.7-3,2.9-4.2c1.2-1.2,2.6-2.2,4.2-2.9c1.6-0.7,3.3-1,5.2-1c1.4,0,2.8,0.3,4.2,1s2.6,1.6,3.7,2.7
			l-3.1,3.1c-0.7-0.7-1.5-1.3-2.3-1.7c-0.8-0.4-1.7-0.6-2.5-0.6c-1.2,0-2.4,0.2-3.5,0.7c-1.1,0.5-2,1.1-2.8,1.9
			c-0.8,0.8-1.4,1.8-1.9,2.9c-0.5,1.1-0.7,2.2-0.7,3.5c0,1.2,0.2,2.4,0.7,3.5c0.5,1.1,1.1,2,1.9,2.8c0.8,0.8,1.7,1.4,2.8,1.9
			c1.1,0.5,2.2,0.7,3.5,0.7c0.9,0,1.7-0.2,2.5-0.6c0.8-0.4,1.6-1,2.3-1.7l3.1,3.1c-1.1,1.1-2.4,2-3.7,2.7
			C208.3,51,206.9,51.3,205.5,51.3z"/>
		<path class="st0" d="M216.9,13.5h4.3v22.4l10.5-10.5h6.1l-12.8,12.8l12.8,12.8h-6.1l-10.5-10.5v10.5h-4.3V13.5z"/>
		<path class="st1" d="M241.1,13.5h4.4v5.9h-4.4V13.5z M241.1,25.4h4.4v25.5h-4.4V25.4z"/>
		<path class="st1" d="M263.2,24.8c1.8,0,3.6,0.3,5.2,1c1.6,0.7,3,1.6,4.2,2.8s2.2,2.6,2.9,4.2c0.7,1.6,1,3.4,1,5.2v12.8h-4.4V38.2
			c0-1.2-0.2-2.4-0.7-3.5c-0.5-1.1-1.1-2-1.9-2.9c-0.8-0.8-1.7-1.5-2.8-1.9c-1.1-0.5-2.3-0.7-3.5-0.7c-1.2,0-2.4,0.2-3.5,0.7
			c-1.1,0.5-2,1.1-2.8,1.9c-0.8,0.8-1.4,1.8-1.9,2.9c-0.5,1.1-0.7,2.2-0.7,3.5v12.8h-4.3V38.2c0-1.8,0.3-3.6,1-5.2s1.7-3,2.9-4.2
			c1.2-1.2,2.6-2.1,4.2-2.8C259.6,25.2,261.3,24.8,263.2,24.8z"/>
	</g>
	<g>
		<g>
			<path class="st1" d="M30.7,1.7L0.9,53.3c-1.2,2,0.3,4.5,2.6,4.5H63c2.3,0,3.8-2.5,2.6-4.5L35.9,1.7C34.7-0.3,31.8-0.3,30.7,1.7z"
				/>
		</g>
		<path class="st2" d="M53.7,20.6H12.9c-3.4,0-5.5,3.7-3.8,6.6l20.4,35.4c1.7,2.9,5.9,2.9,7.6,0l20.4-35.4
			C59.2,24.3,57.1,20.6,53.7,20.6z M56.4,26.5L35.9,61.9c-0.6,1-1.5,1.5-2.7,1.5c-1.1,0-2.1-0.6-2.7-1.5L10.2,26.5
			c-0.6-1-0.6-2.1,0-3.1c0.6-1,1.5-1.5,2.7-1.5h40.8c1.1,0,2.1,0.6,2.7,1.5C56.9,24.4,56.9,25.6,56.4,26.5z"/>
		<path class="st3" d="M35.9,61.9l20.4-35.4c0.6-1,0.6-2.1,0-3.1c-0.6-1-1.5-1.5-2.7-1.5H12.9c-1.1,0-2.1,0.6-2.7,1.5
			c-0.6,1-0.6,2.1,0,3.1l20.4,35.4c0.6,1,1.6,1.5,2.7,1.5C34.4,63.4,35.4,62.9,35.9,61.9z"/>
		<path class="st0" d="M33.8,27.6c0.7,0,1.3,0.1,1.9,0.4c0.6,0.3,1.1,0.6,1.6,1.1c0.5,0.5,0.8,1,1.1,1.6c0.3,0.6,0.4,1.3,0.4,2
			c0,0.7-0.1,1.3-0.4,1.9c-0.3,0.6-0.6,1.1-1.1,1.6c-0.5,0.4-1,0.8-1.6,1.1c-0.6,0.3-1.2,0.4-1.9,0.4h-3.9v7.8h-2.1V27.6H33.8z
			 M33.8,35.4c0.4,0,0.8-0.1,1.1-0.2c0.3-0.1,0.6-0.3,0.9-0.6c0.3-0.3,0.5-0.6,0.6-0.9c0.2-0.3,0.2-0.7,0.2-1.1
			c0-0.4-0.1-0.8-0.2-1.1c-0.2-0.3-0.4-0.7-0.6-0.9c-0.3-0.3-0.6-0.5-0.9-0.6c-0.3-0.1-0.7-0.2-1.1-0.2h-3.9v5.7H33.8z"/>
	</g>
</g>
</svg>
