<?xml version="1.0" encoding="utf-8"?>
<!-- Generator: Adobe Illustrator 27.5.0, SVG Export Plug-In . SVG Version: 6.00 Build 0)  -->
<svg version="1.1" id="Layer_1" xmlns="http://www.w3.org/2000/svg" xmlns:xlink="http://www.w3.org/1999/xlink" x="0px" y="0px"
	 viewBox="0 0 72 72" style="enable-background:new 0 0 72 72;" xml:space="preserve">
<style type="text/css">
	.st0{fill:#F27321;}
	.st1{fill:#F27422;}
	.st2{fill:#FFFFFF;}
	.st3{fill:#273D88;}
</style>
<g>
	<g>
		<path class="st0" d="M33.4,2.1l-33,57.1c-1.2,2,0.3,4.5,2.6,4.5H69c2.3,0,3.8-2.5,2.6-4.5l-33-57.1C37.4,0.1,34.6,0.1,33.4,2.1z"
			/>
	</g>
	<path class="st1" d="M58.3,23.2H13.7c-3.7,0-6,4-4.2,7.2L31.8,69c1.8,3.2,6.5,3.2,8.3,0l22.3-38.6C64.3,27.1,62,23.2,58.3,23.2z
		 M61.2,29.6L38.9,68.2c-0.6,1.1-1.7,1.7-2.9,1.7c-1.2,0-2.3-0.6-2.9-1.7L10.8,29.6c-0.6-1.1-0.6-2.3,0-3.4c0.6-1.1,1.7-1.7,2.9-1.7
		h44.6c1.2,0,2.3,0.6,2.9,1.7S61.8,28.6,61.2,29.6z"/>
	<path class="st2" d="M38.9,68.2l22.3-38.6c0.6-1.1,0.6-2.3,0-3.4s-1.7-1.7-2.9-1.7H13.7c-1.2,0-2.3,0.6-2.9,1.7
		c-0.6,1.1-0.6,2.3,0,3.4l22.3,38.6c0.6,1.1,1.7,1.7,2.9,1.7C37.2,69.9,38.3,69.3,38.9,68.2z"/>
	<path class="st3" d="M36.6,30.8c0.7,0,1.4,0.1,2.1,0.4c0.7,0.3,1.2,0.7,1.7,1.2c0.5,0.5,0.9,1.1,1.2,1.7c0.3,0.7,0.4,1.4,0.4,2.1
		c0,0.7-0.1,1.5-0.4,2.1c-0.3,0.7-0.7,1.2-1.2,1.7c-0.5,0.5-1.1,0.9-1.7,1.2c-0.7,0.3-1.4,0.4-2.1,0.4h-4.3v8.5H30V30.8H36.6z
		 M36.6,39.3c0.4,0,0.8-0.1,1.2-0.2c0.4-0.2,0.7-0.4,1-0.7c0.3-0.3,0.5-0.6,0.7-1c0.2-0.4,0.3-0.8,0.3-1.2c0-0.4-0.1-0.8-0.3-1.2
		c-0.2-0.4-0.4-0.7-0.7-1c-0.3-0.3-0.6-0.5-1-0.7c-0.4-0.2-0.8-0.2-1.2-0.2h-4.3v6.2H36.6z"/>
</g>
</svg>
